<svg width="24" height="24" viewBox="0 0 24 24" fill="none" xmlns="http://www.w3.org/2000/svg">
<path d="M12 22.0002C9.34711 22.0026 6.80218 20.9498 4.9263 19.0739C3.05042 17.198 1.99762 14.6531 2 12.0002V11.8002C2.08179 7.79241 4.5478 4.22035 8.26637 2.72325C11.9849 1.22616 16.2381 2.09308 19.074 4.92619C21.9365 7.78627 22.7932 12.0895 21.2443 15.8278C19.6955 19.5661 16.0465 22.0026 12 22.0002ZM12 13.4102L14.59 16.0002L16 14.5902L13.41 12.0002L16 9.41019L14.59 8.00019L12 10.5902L9.41001 8.00019L8.00001 9.41019L10.59 12.0002L8.00001 14.5902L9.41001 16.0002L12 13.4112V13.4102Z" fill="#EB5757"/>
</svg>
