<svg width="24" height="25" viewBox="0 0 24 25" fill="none" xmlns="http://www.w3.org/2000/svg">
<path d="M17 11.5C15.6193 11.5 17 10.1193 17 11.5C17 12.8807 15.6193 11.5 17 11.5C17 12.8807 18.3807 11.5 17 11.5C18.3807 11.5 17 10.1193 17 11.5ZM13.833 11.1667C13.833 9.32571 15.3254 7.83333 17.1663 7.83333C19.0073 7.83333 20.4997 9.32571 20.4997 11.1667C20.4997 11.937 20.4665 12.4357 20.0277 13.0001L22.2724 15.2448C22.4351 15.4076 22.207 15.8819 22.0443 16.0446C21.8816 16.2073 21.4159 16.4374 21.2532 16.2747L19.0085 14.03C18.4441 14.4688 17.9366 14.5 17.1663 14.5C15.3254 14.5 13.833 13.0076 13.833 11.1667Z" fill="#0D0D0D"/>
<path d="M4 19.0818H2C2 15.7681 4.68629 13.0818 8 13.0818C11.3137 13.0818 14 15.7681 14 19.0818H12C12 16.8727 10.2091 15.0818 8 15.0818C5.79086 15.0818 4 16.8727 4 19.0818ZM19.6689 9.94913H19.4668L19.5 10.0818H20L19.6479 10.141L19.6689 9.94913ZM8 12.0818C5.79086 12.0818 4 10.291 4 8.08185C4 5.87271 5.79086 4.08185 8 4.08185C10.2091 4.08185 12 5.87271 12 8.08185C11.9972 10.2898 10.208 12.0791 8 12.0818ZM8 6.08185C6.9074 6.08295 6.01789 6.9607 6.00223 8.05319C5.98658 9.14568 6.85057 10.0486 7.94269 10.081C9.03481 10.1134 9.95083 9.26335 10 8.17185V8.57185V8.08185C10 6.97728 9.10457 6.08185 8 6.08185Z" fill="black"/>
<circle cx="17.1675" cy="11.2369" r="1.8423" fill="white"/>
</svg>
