<svg width="19" height="17" viewBox="0 0 19 17" fill="none" xmlns="http://www.w3.org/2000/svg">
<path fill-rule="evenodd" clip-rule="evenodd" d="M16.7716 4.08879C16.7784 4.26367 16.7807 4.43849 16.7807 4.61337C16.7807 9.91557 13.0508 16.0366 6.23024 16.0366C4.13507 16.0366 2.18687 15.3689 0.54541 14.2321C0.835568 14.2639 1.13025 14.2878 1.42945 14.2878C3.16663 14.2878 4.76664 13.6438 6.0358 12.5627C4.41318 12.5389 3.04304 11.3703 2.57049 9.78043C2.79734 9.82813 3.03096 9.85205 3.26987 9.85205C3.60675 9.85205 3.93384 9.80441 4.24736 9.70901C2.54937 9.34334 1.27043 7.72172 1.27043 5.77414C1.27043 5.75029 1.27043 5.74229 1.27043 5.72639C1.77086 6.02052 2.34363 6.20326 2.95183 6.22711C1.9555 5.50372 1.30056 4.2716 1.30056 2.88047C1.30056 2.14913 1.48295 1.45751 1.804 0.861311C3.63237 3.29381 6.3659 4.89164 9.4476 5.05858C9.3843 4.76445 9.35188 4.45451 9.35188 4.14448C9.35188 1.92662 11.0122 0.130035 13.0606 0.130035C14.127 0.130035 15.0902 0.615014 15.7662 1.39405C16.6126 1.21916 17.4054 0.885315 18.1229 0.424254C17.8448 1.36227 17.2577 2.14909 16.4905 2.64195C17.2411 2.54656 17.9571 2.33209 18.6211 2.01412C18.1229 2.817 17.4959 3.52438 16.7716 4.08879Z" fill="#1EA1F2"/>
</svg>
